<svg xmlns="http://www.w3.org/2000/svg" viewBox="0 0 80.66 85.68"><defs><style>.a,.g,.h{fill:#fff}.a,.o{fill-rule:evenodd}.d,.g,.h,.i{stroke:#001e45}.d,.g{stroke-width:1.39px}.d,.i{fill:none}.e{fill:#001e45}.h,.i{stroke-width:1.27px}.i{stroke-linecap:round}.o{fill:#05c;fill-opacity:.1}</style><mask id="a" x="49.19" y="8.73" width="31.48" height="30.53" maskUnits="userSpaceOnUse"><path class="a" d="M83.75 24.37a13.87 13.87 0 01-22.13 11.18L56 37.07l2.22-5.15a13.89 13.89 0 1125.53-7.55z" transform="translate(-4.44 -.38)"/></mask></defs><path d="M70.42 50.45a34.86 34.86 0 11-34.86-34.48 34.68 34.68 0 0134.86 34.48z" stroke-width="1.39" stroke="#001e45" fill="#eff7ff"/><path d="M7.56 70.96c.82-4.4 2-9.19 2.71-12.2 1.11-4.51 3.83-8.59 8.56-8.94l13.93-1.05 13.95 1.05c4.72.35 9.06 3.91 11.2 8.9 0 0 3.67 13.2 4.31 14a1.13 1.13 0 00.1-.13c0 .17 0 .21-.1.13-2.88 3.79-12 11.34-26.44 12.24-17.22.03-28.22-14-28.22-14z" fill="#fff"/><path class="d" d="M7.56 70.96c.82-4.4 2-9.19 2.71-12.2 1.11-4.51 3.83-8.59 8.56-8.94l13.93-1.05 13.95 1.05c4.72.35 9.06 3.91 11.2 8.9 0 0 4.41 15.87 4.41 13.9-2.78 3.74-12 11.46-26.54 12.37-17.22 0-28.22-14.03-28.22-14.03z"/><path class="e" d="M19.88 68.52a.69.69 0 01.53.82l-2.16 10.12a.7.7 0 01-.83.53.69.69 0 01-.54-.82l2.17-10.11a.7.7 0 01.83-.54z"/><path class="a" d="M24.41 49.76h4.55v-6.21h9.11v6.21h5.86"/><path d="M24.41 49.76h4.55v-6.21h9.11v6.21h5.86" stroke-width="1.27" fill="none" stroke="#001e45"/><rect class="g" x="20.91" y="13.9" width="24.4" height="31.03" rx="9.02"/><path class="h" d="M43.47 19.01l-.15-.79-.74.33-.15.06c-.12.06-.31.13-.56.23-.49.2-1.2.48-2.09.79a50.73 50.73 0 01-6.94 1.9c-5.48 1.08-11.82 1.23-16-2.06-2.55-2.47-2.6-5.29-1.56-7.21a4 4 0 015.25-2l.61.29.25-.63c.17-.63 2.51-4.3 8.85-3.55a24.7 24.7 0 017.85 2 6.1 6.1 0 013.47 3.72l.23.76.7-.39a4.28 4.28 0 011.3-.46 3.14 3.14 0 011.64.06 2.42 2.42 0 011.37 1.25 7.8 7.8 0 01.66 3.57v1.41c0 3.15 0 6.41-.18 9a18.17 18.17 0 01-.53 3.57 3.09 3.09 0 01-.34.81 14 14 0 01-.46-1.44c-.35-1.23-.74-2.89-1.11-4.56s-.72-3.34-1-4.59c-.13-.63-.23-1.15-.3-1.52 0-.18-.06-.32-.08-.42v-.11l-.63.12zm2.73 12.87zm.38.16zm-26.6-5.78h1v7.69h-1a1.91 1.91 0 01-1.91-1.91v-3.88a1.9 1.9 0 011.91-1.9z"/><path class="h" d="M45.94 26.26a2.29 2.29 0 012.23 2.36v3a2.29 2.29 0 01-2.23 2.35h-.68v-7.71z"/><path class="a" d="M36.26 29.07a2.09 2.09 0 004.18 0"/><path class="i" d="M36.26 29.07a2.09 2.09 0 004.18 0"/><path class="a" d="M25.1 29.07a2.1 2.1 0 004.19 0"/><path class="i" d="M25.1 29.07a2.1 2.1 0 004.19 0m4.88 8.27a2.85 2.85 0 01-4.88 0"/><path style="isolation:isolate" fill="#145bf6" opacity=".15" d="M29.98 45.62h6.97v2.07h-6.97z"/><path fill="#011689" d="M16.03 58.73h3.22v3.18h-3.22z"/><path fill="#cc003d" d="M19.79 58.73h3.22v3.18h-3.22z"/><path class="d" d="M29.36 48.83a4.53 4.53 0 008.29 0"/><path d="M34.17 75.97a2.07 2.07 0 10-2.09-2.07 2.08 2.08 0 002.09 2.07zm0 6.2a2.07 2.07 0 10-2.1-2.07 2.08 2.08 0 002.1 2.07z" fill="#05c" fill-opacity=".1"/><path class="g" d="M32.77 74.62a1.38 1.38 0 100-2.76 1.38 1.38 0 100 2.76zm0 6.17a1.38 1.38 0 10-1.39-1.38 1.39 1.39 0 001.39 1.38z"/><path class="d" d="M22.88 49.62l9.47 16.57a.69.69 0 001.2 0l9.47-16.57"/><path class="d" d="M26.84 55.82l6.1-2.28 6.11 2.28"/><path class="d" d="M36.56 54.62l-2.13 2.76 1.47 4.44m-6.34-7.2l2.13 2.76-1.6 4.74"/><path class="a" d="M48.11 69.07s2.45 8.77 3.09 11.31z"/><path d="M48.11 69.07s2.45 8.77 3.09 11.31" stroke="#001837" stroke-linecap="round" fill="none" stroke-width="1.39"/><path class="o" d="M79.31 26.02A13.88 13.88 0 0157.18 37.2l-5.62 1.52 2.22-5.1a13.89 13.89 0 1125.53-7.6z"/><path class="a" d="M79.31 23.99a13.87 13.87 0 01-22.13 11.18l-5.62 1.52 2.22-5.15a13.89 13.89 0 1125.53-7.55z"/><g mask="url(#a)"><path class="e" d="M57.18 35.17l.81-1.09-.53-.4-.63.18zm-5.62 1.52l-1.25-.54-1.12 2.59 2.73-.73zm2.22-5.15l1.25.54.29-.67-.4-.61zm11.65 7.72a15.26 15.26 0 0015.24-15.27h-2.73a12.52 12.52 0 01-12.51 12.54zm-9.06-3a15.15 15.15 0 009.06 3v-2.73a12.47 12.47 0 01-7.44-2.45zm-4.45 1.75l5.64-1.53-.71-2.62-5.63 1.52zm.61-7l-2.22 5.15 2.5 1.08 2.22-5.15zm-2.33-7a15.19 15.19 0 002.44 8.29l2.28-1.48a12.56 12.56 0 01-2-6.81zM65.43 8.73A15.24 15.24 0 0050.2 23.99h2.72a12.53 12.53 0 0112.51-12.54zm15.24 15.26A15.25 15.25 0 0065.43 8.73v2.72a12.52 12.52 0 0112.51 12.54z"/></g><path d="M67.22 26.32c0-2 2.73-2.66 2.73-5.75a4.41 4.41 0 00-8.82 0c0 3.09 2.71 3.79 2.71 5.75z" stroke-width="1.36" fill="none" stroke="#001e45"/><path class="o" d="M67.22 26.32c0-2 2.73-2.66 2.73-5.75-2.09 1.18-5.57 2.93-7.12 3.7a3.19 3.19 0 011 2.05z"/><path class="e" d="M63.16 27.67h4.76a.67.67 0 01.67.68.67.67 0 01-.67.67h-4.76a.67.67 0 01-.67-.67.67.67 0 01.67-.68zm0 2.03h4.76a.67.67 0 01.67.67.67.67 0 01-.67.68h-4.76a.67.67 0 01-.67-.68.67.67 0 01.67-.67z"/><rect class="e" x="63.84" y="31.73" width="3.39" height="1.35" rx=".68"/><path d="M64.9 4.49V.62m-5.63 6.26l-2.38-3m13.74 2.65l2.71-2.71" stroke-linejoin="round" stroke-width="1.25" stroke-linecap="round" fill="none" stroke="#001e45"/></svg>