<svg xmlns="http://www.w3.org/2000/svg" viewBox="0 0 71.11 80.06"><defs><style>.a{fill:#eff7ff;}.a,.b,.e,.f,.g,.k,.n{stroke:#001e45;}.a,.b,.k,.m,.n{stroke-width:1.39px;}.b,.d,.f{fill:#fff;}.c{fill:#001e45;}.d,.o{fill-rule:evenodd;}.e,.g,.k,.m,.n{fill:none;}.e,.f,.g{stroke-width:1.27px;}.g,.m,.n{stroke-linecap:round;}.h{fill:#145bf6;opacity:0.15;isolation:isolate;}.i{fill:#011689;}.j{fill:#cc003d;}.l,.o{fill:#05c;fill-opacity:0.1;}.m{stroke:#001837;}</style></defs><path class="a" d="M74.86,44.83A34.86,34.86,0,1,1,40,10.35,34.68,34.68,0,0,1,74.86,44.83Z" transform="translate(-4.44 0)"/><path class="b" d="M12,65.34c.82-4.4,2-9.19,2.71-12.2,1.11-4.51,3.83-8.59,8.56-8.94l13.93-1.05L51.15,44.2c4.72.35,9.06,3.91,11.2,8.9v-16c2.72.71,8.24,1,12,2,4.09,25.11-16.9,40.34-34.11,40.34S12,65.34,12,65.34Z" transform="translate(-4.44 0)"/><path class="c" d="M24.32,62.9h0a.69.69,0,0,1,.53.82L22.69,73.84a.7.7,0,0,1-.83.53h0a.69.69,0,0,1-.54-.82l2.17-10.11A.7.7,0,0,1,24.32,62.9Z" transform="translate(-4.44 0)"/><path class="d" d="M28.85,44.14H33.4V37.93h9.11v6.21h5.86" transform="translate(-4.44 0)"/><path class="e" d="M28.85,44.14H33.4V37.93h9.11v6.21h5.86" transform="translate(-4.44 0)"/><rect class="b" x="20.91" y="8.28" width="24.4" height="31.03" rx="9.02"/><path class="f" d="M47.91,13.39l-.15-.79-.74.33h0l0,0-.15.06c-.12.06-.31.13-.56.23-.49.2-1.2.48-2.09.79a50.73,50.73,0,0,1-6.94,1.9c-5.48,1.08-11.82,1.23-16-2.06-2.55-2.47-2.6-5.29-1.56-7.21a4,4,0,0,1,5.25-2l.6.29.26-.63C26,3.67,28.34,0,34.68.75a24.7,24.7,0,0,1,7.85,2A6.13,6.13,0,0,1,46,6.47l.23.76.7-.39a4.28,4.28,0,0,1,1.3-.46,3.14,3.14,0,0,1,1.64.06,2.42,2.42,0,0,1,1.37,1.25,7.8,7.8,0,0,1,.66,3.57v1.41c0,3.15,0,6.41-.18,9a18.17,18.17,0,0,1-.53,3.57,3.09,3.09,0,0,1-.34.81,14,14,0,0,1-.46-1.44c-.35-1.23-.74-2.89-1.11-4.56s-.72-3.34-1-4.59c-.13-.63-.23-1.15-.3-1.52,0-.18-.06-.32-.08-.42l0-.11v0h0l-.63.12Zm2.73,12.87h0Zm.38.16Z" transform="translate(-4.44 0)"/><path class="f" d="M22.51,22.54a1.9,1.9,0,0,1,1.91-1.9h1v7.69h-1a1.9,1.9,0,0,1-1.91-1.91Z" transform="translate(-4.44 0)"/><path class="f" d="M50.38,20.64A2.29,2.29,0,0,1,52.61,23v3a2.29,2.29,0,0,1-2.23,2.35H49.7V20.64Z" transform="translate(-4.44 0)"/><path class="d" d="M40.7,23.45a2.09,2.09,0,0,0,4.18,0" transform="translate(-4.44 0)"/><path class="g" d="M40.7,23.45a2.09,2.09,0,0,0,4.18,0" transform="translate(-4.44 0)"/><path class="d" d="M29.54,23.45a2.1,2.1,0,0,0,4.19,0" transform="translate(-4.44 0)"/><path class="g" d="M29.54,23.45a2.1,2.1,0,0,0,4.19,0" transform="translate(-4.44 0)"/><path class="g" d="M38.61,31.72a2.85,2.85,0,0,1-4.88,0" transform="translate(-4.44 0)"/><rect class="h" x="29.98" y="40" width="6.97" height="2.07"/><rect class="i" x="16.03" y="53.1" width="3.22" height="3.18"/><rect class="j" x="19.79" y="53.1" width="3.22" height="3.18"/><path class="k" d="M33.8,43.21h0a4.53,4.53,0,0,0,8.29,0h0" transform="translate(-4.44 0)"/><path class="l" d="M38.61,70.35a2.07,2.07,0,1,0-2.09-2.07A2.08,2.08,0,0,0,38.61,70.35Z" transform="translate(-4.44 0)"/><path class="l" d="M38.61,76.55a2.07,2.07,0,1,0-2.1-2.07A2.08,2.08,0,0,0,38.61,76.55Z" transform="translate(-4.44 0)"/><path class="b" d="M37.21,69a1.38,1.38,0,1,0,0-2.76,1.38,1.38,0,1,0,0,2.76Z" transform="translate(-4.44 0)"/><path class="b" d="M37.21,75.17a1.38,1.38,0,1,0-1.39-1.38A1.39,1.39,0,0,0,37.21,75.17Z" transform="translate(-4.44 0)"/><path class="k" d="M27.32,44l9.47,16.57a.69.69,0,0,0,1.2,0L47.46,44" transform="translate(-4.44 0)"/><path class="k" d="M31.28,50.2l6.1-2.28,6.11,2.28" transform="translate(-4.44 0)"/><path class="k" d="M41,49l-2.13,2.76,1.47,4.44" transform="translate(-4.44 0)"/><path class="k" d="M34,49l2.13,2.76-1.6,4.74" transform="translate(-4.44 0)"/><path class="d" d="M52.55,63.45S55,72.22,55.64,74.76Z" transform="translate(-4.44 0)"/><path class="m" d="M52.55,63.45S55,72.22,55.64,74.76" transform="translate(-4.44 0)"/><path class="d" d="M73.46,34.48V39l-8.36-1.4V34.48" transform="translate(-4.44 0)"/><path class="k" d="M73.46,34.48V39l-8.36-1.4V34.48" transform="translate(-4.44 0)"/><path class="n" d="M62.94,46.92H74.16" transform="translate(-4.44 0)"/><path class="o" d="M63,47.24,74.16,40v7.24Z" transform="translate(-4.44 0)"/><rect class="c" x="57.17" y="52.41" width="1.39" height="11.72" rx="0.69"/><path class="d" d="M74.86,24.7V31c0,2.1-3.17,4.14-6.07,4.14s-4.94-2.06-5.9-2.94-4-3.86-5.17-5.12a1.38,1.38,0,0,1,.19-1.89,1.83,1.83,0,0,1,2.23.23c1,1,3.65,3,3.65,3V16.64a1.36,1.36,0,0,1,1.39-1.47,1.38,1.38,0,0,1,1.38,1.47v6.12" transform="translate(-4.44 0)"/><path class="k" d="M74.86,24.7V31c0,2.1-3.17,4.14-6.07,4.14s-4.94-2.06-5.9-2.94-4-3.86-5.17-5.12a1.38,1.38,0,0,1,.19-1.89,1.83,1.83,0,0,1,2.23.23c1,1,3.65,3,3.65,3V16.64a1.36,1.36,0,0,1,1.39-1.47,1.38,1.38,0,0,1,1.38,1.47v6.12" transform="translate(-4.44 0)"/><path class="d" d="M66.49,24.16v-8.6a1.33,1.33,0,0,1,1.4-1.08,1.26,1.26,0,0,1,1.39,1.08v7.89" transform="translate(-4.44 0)"/><path class="k" d="M66.49,24.16v-8.6a1.33,1.33,0,0,1,1.4-1.08,1.26,1.26,0,0,1,1.39,1.08v7.89" transform="translate(-4.44 0)"/><path class="d" d="M69.28,24.14v-7.9a1.32,1.32,0,0,1,1.4-1.07,1.25,1.25,0,0,1,1.39,1.07v7.22" transform="translate(-4.44 0)"/><path class="k" d="M69.28,24.14v-7.9a1.32,1.32,0,0,1,1.4-1.07,1.25,1.25,0,0,1,1.39,1.07v7.22" transform="translate(-4.44 0)"/><path class="d" d="M72.07,24.16V18.3a1.3,1.3,0,0,1,1.39-1.06,1.26,1.26,0,0,1,1.4,1.06v7.22" transform="translate(-4.44 0)"/><path class="k" d="M72.07,24.16V18.3a1.3,1.3,0,0,1,1.39-1.06,1.26,1.26,0,0,1,1.4,1.06v7.22" transform="translate(-4.44 0)"/></svg>