<svg xmlns="http://www.w3.org/2000/svg" viewBox="0 0 71.11 80.06"><defs><style>.b,.f,.g,.k{stroke:#001e45}.b,.k{stroke-width:1.39px}.b,.d,.f{fill:#fff}.c{fill:#001e45}.d{fill-rule:evenodd}.g,.k{fill:none}.f,.g{stroke-width:1.27px}.g{stroke-linecap:round}</style></defs><path d="M70.42 44.83a34.86 34.86 0 11-34.86-34.48 34.68 34.68 0 0134.86 34.48z" stroke-width="1.39" stroke="#001e45" fill="#eff7ff"/><path class="b" d="M7.56 65.34c.82-4.4 2-9.19 2.71-12.2 1.11-4.51 3.83-8.59 8.56-8.94l13.93-1.05 13.95 1.05c4.72.35 9.06 3.91 11.2 8.9v-16c2.72.71 8.24 1 12 2C74 64.21 53.01 79.44 35.8 79.44S7.56 65.34 7.56 65.34z"/><path class="c" d="M19.88 62.9a.69.69 0 01.53.82l-2.16 10.12a.7.7 0 01-.83.53.69.69 0 01-.54-.82l2.17-10.11a.7.7 0 01.83-.54z"/><path class="d" d="M24.41 44.14h4.55v-6.21h9.11v6.21h5.86"/><path d="M24.41 44.14h4.55v-6.21h9.11v6.21h5.86" stroke-width="1.27" fill="none" stroke="#001e45"/><rect class="b" x="20.91" y="8.28" width="24.4" height="31.03" rx="9.02"/><path class="f" d="M43.47 13.39l-.15-.79-.74.33-.15.06c-.12.06-.31.13-.56.23-.49.2-1.2.48-2.09.79a50.73 50.73 0 01-6.94 1.9c-5.48 1.08-11.82 1.23-16-2.06-2.55-2.47-2.6-5.29-1.56-7.21a4 4 0 015.25-2l.6.29.26-.63c.17-.63 2.51-4.3 8.85-3.55a24.7 24.7 0 017.85 2 6.13 6.13 0 013.47 3.72l.23.76.7-.39a4.28 4.28 0 011.3-.46 3.14 3.14 0 011.64.06 2.42 2.42 0 011.37 1.25 7.8 7.8 0 01.66 3.57v1.41c0 3.15 0 6.41-.18 9a18.17 18.17 0 01-.53 3.57 3.09 3.09 0 01-.34.81 14 14 0 01-.46-1.44c-.35-1.23-.74-2.89-1.11-4.56s-.72-3.34-1-4.59c-.13-.63-.23-1.15-.3-1.52 0-.18-.06-.32-.08-.42v-.11l-.63.12zm2.73 12.87zm.38.16zm-28.51-3.88a1.9 1.9 0 011.91-1.9h1v7.69h-1a1.9 1.9 0 01-1.91-1.91z"/><path class="f" d="M45.94 20.64A2.29 2.29 0 0148.17 23v3a2.29 2.29 0 01-2.23 2.35h-.68v-7.71z"/><path class="d" d="M36.26 23.45a2.09 2.09 0 004.18 0"/><path class="g" d="M36.26 23.45a2.09 2.09 0 004.18 0"/><path class="d" d="M25.1 23.45a2.1 2.1 0 004.19 0"/><path class="g" d="M25.1 23.45a2.1 2.1 0 004.19 0m4.88 8.27a2.85 2.85 0 01-4.88 0"/><path style="isolation:isolate" fill="#145bf6" opacity=".15" d="M29.98 40h6.97v2.07h-6.97z"/><path fill="#011689" d="M16.03 53.1h3.22v3.18h-3.22z"/><path fill="#cc003d" d="M19.79 53.1h3.22v3.18h-3.22z"/><path class="k" d="M29.36 43.21a4.53 4.53 0 008.29 0"/><path d="M34.17 70.35a2.07 2.07 0 10-2.09-2.07 2.08 2.08 0 002.09 2.07zm0 6.2a2.07 2.07 0 10-2.1-2.07 2.08 2.08 0 002.1 2.07z" fill="#05c" fill-opacity=".1"/><path class="b" d="M32.77 69a1.38 1.38 0 100-2.76 1.38 1.38 0 100 2.76zm0 6.17a1.38 1.38 0 10-1.39-1.38 1.39 1.39 0 001.39 1.38z"/><path class="k" d="M22.88 44l9.47 16.57a.69.69 0 001.2 0L43.02 44"/><path class="k" d="M26.84 50.2l6.1-2.28 6.11 2.28"/><path class="k" d="M36.56 49l-2.13 2.76 1.47 4.44M29.56 49l2.13 2.76-1.6 4.74"/><path class="d" d="M48.11 63.45s2.45 8.77 3.09 11.31z"/><path d="M48.11 63.45s2.45 8.77 3.09 11.31" stroke="#001837" stroke-linecap="round" fill="none" stroke-width="1.39"/><path class="d" d="M69.02 34.48V39l-8.36-1.4v-3.12"/><path class="k" d="M69.02 34.48V39l-8.36-1.4v-3.12"/><path d="M58.5 46.92h11.22" stroke-linecap="round" fill="none" stroke-width="1.39" stroke="#001e45"/><path d="M58.56 47.24L69.72 40v7.24z" fill="#05c" fill-opacity=".1" fill-rule="evenodd"/><rect class="c" x="57.17" y="52.41" width="1.39" height="11.72" rx=".69"/><path class="d" d="M70.42 24.7V31c0 2.1-3.17 4.14-6.07 4.14s-4.94-2.06-5.9-2.94-4-3.86-5.17-5.12a1.38 1.38 0 01.19-1.89 1.83 1.83 0 012.23.23c1 1 3.65 3 3.65 3V16.64a1.36 1.36 0 011.39-1.47 1.38 1.38 0 011.38 1.47v6.12"/><path class="k" d="M70.42 24.7V31c0 2.1-3.17 4.14-6.07 4.14s-4.94-2.06-5.9-2.94-4-3.86-5.17-5.12a1.38 1.38 0 01.19-1.89 1.83 1.83 0 012.23.23c1 1 3.65 3 3.65 3V16.64a1.36 1.36 0 011.39-1.47 1.38 1.38 0 011.38 1.47v6.12"/><path class="d" d="M62.05 24.16v-8.6a1.33 1.33 0 011.4-1.08 1.26 1.26 0 011.39 1.08v7.89"/><path class="k" d="M62.05 24.16v-8.6a1.33 1.33 0 011.4-1.08 1.26 1.26 0 011.39 1.08v7.89"/><path class="d" d="M64.84 24.14v-7.9a1.32 1.32 0 011.4-1.07 1.25 1.25 0 011.39 1.07v7.22"/><path class="k" d="M64.84 24.14v-7.9a1.32 1.32 0 011.4-1.07 1.25 1.25 0 011.39 1.07v7.22"/><path class="d" d="M67.63 24.16V18.3a1.3 1.3 0 011.39-1.06 1.26 1.26 0 011.4 1.06v7.22"/><path class="k" d="M67.63 24.16V18.3a1.3 1.3 0 011.39-1.06 1.26 1.26 0 011.4 1.06v7.22"/></svg>