<svg xmlns="http://www.w3.org/2000/svg" viewBox="0 0 71.11 80.06"><defs><style>.c,.g,.h,.i{stroke:#001e45}.c,.g{stroke-width:1.39px}.e,.g,.h{fill:#fff}.c,.i{fill:none}.e{fill-rule:evenodd}.h,.i{stroke-width:1.27px}.i{stroke-linecap:round}</style></defs><path d="M70.42 44.83a34.86 34.86 0 11-34.86-34.48 34.68 34.68 0 0134.86 34.48z" stroke-width="1.39" stroke="#001e45" fill="#eff7ff"/><path d="M7.56 65.34c.82-4.4 2-9.19 2.71-12.2 1.11-4.51 3.83-8.59 8.56-8.94l13.93-1.05 13.95 1.05c4.72.35 9.06 3.91 11.2 8.9 0 0 3.67 13.2 4.31 14a1.13 1.13 0 00.1-.13c0 .17 0 .21-.1.13-2.88 3.79-12 11.34-26.44 12.24-17.22.03-28.22-14-28.22-14z" fill="#fff"/><path class="c" d="M7.56 65.34c.82-4.4 2-9.19 2.71-12.2 1.11-4.51 3.83-8.59 8.56-8.94l13.93-1.05 13.95 1.05c4.72.35 9.06 3.91 11.2 8.9 0 0 4.41 15.87 4.41 13.9-2.78 3.74-12 11.46-26.54 12.37-17.22 0-28.22-14.03-28.22-14.03z"/><path d="M19.88 62.9a.69.69 0 01.53.82l-2.16 10.12a.7.7 0 01-.83.53.69.69 0 01-.54-.82l2.17-10.11a.7.7 0 01.83-.54z" fill="#001e45"/><path class="e" d="M24.41 44.14h4.55v-6.21h9.11v6.21h5.86"/><path d="M24.41 44.14h4.55v-6.21h9.11v6.21h5.86" stroke-width="1.27" fill="none" stroke="#001e45"/><rect class="g" x="20.91" y="8.28" width="24.4" height="31.03" rx="9.02"/><path class="h" d="M43.47 13.39l-.15-.79-.74.33-.15.06c-.12.06-.31.13-.56.23-.49.2-1.2.48-2.09.79a50.73 50.73 0 01-6.94 1.9c-5.48 1.08-11.82 1.23-16-2.06-2.55-2.47-2.6-5.29-1.56-7.21a4 4 0 015.25-2l.61.29.25-.63c.17-.63 2.51-4.3 8.85-3.55a24.7 24.7 0 017.85 2 6.1 6.1 0 013.47 3.72l.23.76.7-.39a4.28 4.28 0 011.3-.46 3.14 3.14 0 011.64.06 2.42 2.42 0 011.37 1.25 7.8 7.8 0 01.66 3.57v1.41c0 3.15 0 6.41-.18 9a18.17 18.17 0 01-.53 3.57 3.09 3.09 0 01-.34.81 14 14 0 01-.46-1.44c-.35-1.23-.74-2.89-1.11-4.56s-.72-3.34-1-4.59c-.13-.63-.23-1.15-.3-1.52 0-.18-.06-.32-.08-.42v-.11l-.63.12zm2.73 12.87zm.38.16zm-26.6-5.78h1v7.69h-1a1.9 1.9 0 01-1.91-1.91v-3.88a1.9 1.9 0 011.91-1.9z"/><path class="h" d="M45.94 20.64A2.29 2.29 0 0148.17 23v3a2.29 2.29 0 01-2.23 2.35h-.68v-7.71z"/><path class="e" d="M36.26 23.45a2.09 2.09 0 004.18 0"/><path class="i" d="M36.26 23.45a2.09 2.09 0 004.18 0"/><path class="e" d="M25.1 23.45a2.1 2.1 0 004.19 0"/><path class="i" d="M25.1 23.45a2.1 2.1 0 004.19 0M34.06 33h-3.5"/><path d="M29.56 40h8v2.07h-8z" style="isolation:isolate" fill="#145bf6" opacity=".15"/><path fill="#011689" d="M16.03 53.1h3.22v3.18h-3.22z"/><path fill="#cc003d" d="M19.79 53.1h3.22v3.18h-3.22z"/><path class="c" d="M29.36 43.21a4.53 4.53 0 008.29 0"/><path d="M34.17 70.35a2.07 2.07 0 10-2.09-2.07 2.08 2.08 0 002.09 2.07zm0 6.2a2.07 2.07 0 10-2.1-2.07 2.08 2.08 0 002.1 2.07z" fill="#05c" fill-opacity=".1"/><path class="g" d="M32.77 69a1.38 1.38 0 100-2.76 1.38 1.38 0 100 2.76zm0 6.17a1.38 1.38 0 10-1.39-1.38 1.39 1.39 0 001.39 1.38z"/><path class="c" d="M22.88 44l9.47 16.57a.69.69 0 001.2 0L43.02 44"/><path class="c" d="M26.84 50.2l6.1-2.28 6.11 2.28"/><path class="c" d="M36.56 49l-2.13 2.76 1.47 4.44M29.56 49l2.13 2.76-1.6 4.74"/><path class="e" d="M48.11 63.45s2.45 8.77 3.09 11.31z"/><path d="M48.11 63.45s2.45 8.77 3.09 11.31" stroke="#001837" stroke-linecap="round" fill="none" stroke-width="1.39"/></svg>