<svg xmlns="http://www.w3.org/2000/svg" viewBox="0 0 71.11 80.06"><defs><style>.a{fill:#eff7ff;}.a,.c,.f,.g,.h,.i{stroke:#001e45;}.a,.c,.g,.n{stroke-width:1.39px;}.b,.e,.g,.h{fill:#fff;}.c,.f,.i,.n{fill:none;}.d{fill:#001e45;}.e{fill-rule:evenodd;}.f,.h,.i{stroke-width:1.27px;}.i,.n{stroke-linecap:round;}.j{fill:#145bf6;opacity:0.15;isolation:isolate;}.k{fill:#011689;}.l{fill:#cc003d;}.m{fill:#05c;fill-opacity:0.1;}.n{stroke:#001837;}</style></defs><path class="a" d="M74.86,44.83A34.86,34.86,0,1,1,40,10.35,34.68,34.68,0,0,1,74.86,44.83Z" transform="translate(-4.44 0)"/><path class="b" d="M12,65.34c.82-4.4,2-9.19,2.71-12.2,1.11-4.51,3.83-8.59,8.56-8.94l13.93-1.05L51.15,44.2c4.72.35,9.06,3.91,11.2,8.9,0,0,3.67,13.2,4.31,14a1.13,1.13,0,0,0,.1-.13c0,.17,0,.21-.1.13-2.88,3.79-12,11.34-26.44,12.24C23,79.37,12,65.34,12,65.34Z" transform="translate(-4.44 0)"/><path class="c" d="M12,65.34c.82-4.4,2-9.19,2.71-12.2,1.11-4.51,3.83-8.59,8.56-8.94l13.93-1.05L51.15,44.2c4.72.35,9.06,3.91,11.2,8.9,0,0,4.41,15.87,4.41,13.9-2.78,3.74-12,11.46-26.54,12.37C23,79.37,12,65.34,12,65.34Z" transform="translate(-4.44 0)"/><path class="d" d="M24.32,62.9h0a.69.69,0,0,1,.53.82L22.69,73.84a.7.7,0,0,1-.83.53h0a.69.69,0,0,1-.54-.82l2.17-10.11A.7.7,0,0,1,24.32,62.9Z" transform="translate(-4.44 0)"/><path class="e" d="M28.85,44.14H33.4V37.93h9.11v6.21h5.86" transform="translate(-4.44 0)"/><path class="f" d="M28.85,44.14H33.4V37.93h9.11v6.21h5.86" transform="translate(-4.44 0)"/><rect class="g" x="20.91" y="8.28" width="24.4" height="31.03" rx="9.02"/><path class="h" d="M47.91,13.39l-.15-.79-.74.33h0l0,0-.15.06c-.12.06-.31.13-.56.23-.49.2-1.2.48-2.09.79a50.73,50.73,0,0,1-6.94,1.9c-5.48,1.08-11.82,1.23-16-2.06-2.55-2.47-2.6-5.29-1.56-7.21a4,4,0,0,1,5.25-2l.61.29.25-.63C26,3.67,28.34,0,34.68.75a24.7,24.7,0,0,1,7.85,2A6.1,6.1,0,0,1,46,6.47l.23.76.7-.39a4.28,4.28,0,0,1,1.3-.46,3.14,3.14,0,0,1,1.64.06,2.42,2.42,0,0,1,1.37,1.25,7.8,7.8,0,0,1,.66,3.57v1.41c0,3.15,0,6.41-.18,9a18.17,18.17,0,0,1-.53,3.57,3.09,3.09,0,0,1-.34.81,14,14,0,0,1-.46-1.44c-.35-1.23-.74-2.89-1.11-4.56s-.72-3.34-1-4.59c-.13-.63-.23-1.15-.3-1.52,0-.18-.06-.32-.08-.42l0-.11v0h0l-.63.12Zm2.73,12.87h0Zm.38.16Z" transform="translate(-4.44 0)"/><path class="h" d="M24.42,20.64h1v7.69h-1a1.9,1.9,0,0,1-1.91-1.91V22.54A1.9,1.9,0,0,1,24.42,20.64Z" transform="translate(-4.44 0)"/><path class="h" d="M50.38,20.64A2.29,2.29,0,0,1,52.61,23v3a2.29,2.29,0,0,1-2.23,2.35H49.7V20.64Z" transform="translate(-4.44 0)"/><path class="e" d="M40.7,23.45a2.09,2.09,0,0,0,4.18,0" transform="translate(-4.44 0)"/><path class="i" d="M40.7,23.45a2.09,2.09,0,0,0,4.18,0" transform="translate(-4.44 0)"/><path class="e" d="M29.54,23.45a2.1,2.1,0,0,0,4.19,0" transform="translate(-4.44 0)"/><path class="i" d="M29.54,23.45a2.1,2.1,0,0,0,4.19,0" transform="translate(-4.44 0)"/><path class="i" d="M38.5,33H35" transform="translate(-4.44 0)"/><path class="j" d="M34,40h8v2.07H34Z" transform="translate(-4.44 0)"/><rect class="k" x="16.03" y="53.1" width="3.22" height="3.18"/><rect class="l" x="19.79" y="53.1" width="3.22" height="3.18"/><path class="c" d="M33.8,43.21h0a4.53,4.53,0,0,0,8.29,0h0" transform="translate(-4.44 0)"/><path class="m" d="M38.61,70.35a2.07,2.07,0,1,0-2.09-2.07A2.08,2.08,0,0,0,38.61,70.35Z" transform="translate(-4.44 0)"/><path class="m" d="M38.61,76.55a2.07,2.07,0,1,0-2.1-2.07A2.08,2.08,0,0,0,38.61,76.55Z" transform="translate(-4.44 0)"/><path class="g" d="M37.21,69a1.38,1.38,0,1,0,0-2.76,1.38,1.38,0,1,0,0,2.76Z" transform="translate(-4.44 0)"/><path class="g" d="M37.21,75.17a1.38,1.38,0,1,0-1.39-1.38A1.39,1.39,0,0,0,37.21,75.17Z" transform="translate(-4.44 0)"/><path class="c" d="M27.32,44l9.47,16.57a.69.69,0,0,0,1.2,0L47.46,44" transform="translate(-4.44 0)"/><path class="c" d="M31.28,50.2l6.1-2.28,6.11,2.28" transform="translate(-4.44 0)"/><path class="c" d="M41,49l-2.13,2.76,1.47,4.44" transform="translate(-4.44 0)"/><path class="c" d="M34,49l2.13,2.76-1.6,4.74" transform="translate(-4.44 0)"/><path class="e" d="M52.55,63.45S55,72.22,55.64,74.76Z" transform="translate(-4.44 0)"/><path class="n" d="M52.55,63.45S55,72.22,55.64,74.76" transform="translate(-4.44 0)"/></svg>